<svg width="200" height="200" viewBox="0 0 200 200" xmlns="http://www.w3.org/2000/svg">
    <!-- Turtle Shell -->
    <ellipse cx="100" cy="100" rx="60" ry="50" fill="#6B46C1" stroke="#4a2f85" stroke-width="3"/>
    
    <!-- Shell Pattern -->
    <path d="M 70 80 Q 100 70 130 80 Q 130 100 130 120 Q 100 130 70 120 Q 70 100 70 80" 
          fill="#7B56D1" stroke="#4a2f85" stroke-width="2"/>
    <line x1="100" y1="70" x2="100" y2="130" stroke="#4a2f85" stroke-width="2"/>
    <line x1="70" y1="100" x2="130" y2="100" stroke="#4a2f85" stroke-width="2"/>
    <path d="M 85 85 Q 100 80 115 85" stroke="#4a2f85" stroke-width="1.5" fill="none"/>
    <path d="M 85 115 Q 100 120 115 115" stroke="#4a2f85" stroke-width="1.5" fill="none"/>
    
    <!-- Head -->
    <circle cx="100" cy="45" r="20" fill="#7B56D1" stroke="#4a2f85" stroke-width="2"/>
    
    <!-- Eyes -->
    <circle cx="92" cy="42" r="3" fill="#F59E0B"/>
    <circle cx="108" cy="42" r="3" fill="#F59E0B"/>
    
    <!-- Smile -->
    <path d="M 90 48 Q 100 52 110 48" stroke="#4a2f85" stroke-width="2" fill="none"/>
    
    <!-- Legs -->
    <ellipse cx="65" cy="90" rx="15" ry="10" fill="#7B56D1" stroke="#4a2f85" stroke-width="2" transform="rotate(-30 65 90)"/>
    <ellipse cx="135" cy="90" rx="15" ry="10" fill="#7B56D1" stroke="#4a2f85" stroke-width="2" transform="rotate(30 135 90)"/>
    <ellipse cx="65" cy="110" rx="15" ry="10" fill="#7B56D1" stroke="#4a2f85" stroke-width="2" transform="rotate(30 65 110)"/>
    <ellipse cx="135" cy="110" rx="15" ry="10" fill="#7B56D1" stroke="#4a2f85" stroke-width="2" transform="rotate(-30 135 110)"/>
    
    <!-- Tail -->
    <path d="M 100 150 L 100 165 L 95 160 M 100 165 L 105 160" stroke="#4a2f85" stroke-width="2" fill="none"/>
</svg>